# xmcd
#
# Track frame offsets: 
#        150
#        6846
#        22355
#        40161
#        61146
#        72918
#        94313
#        108723
#        125434
#        140098
#        156135
#        171141
#
# Disc length: 2366 seconds
#
# Revision: 1
# Processed by: cddbd v1.5.2PL0 Copyright (c) Steve Scherf et al.
# Submitted via: ExactAudioCopy v0.99pb5
#
DISCID=ab093c0c
DTITLE=Angie Stone - Unexpected
DYEAR=1900
DGENRE=R&B
TTITLE0=Unexpected
TTITLE1=I Ain't Hearin' U
TTITLE2=Free
TTITLE3=Maybe
TTITLE4=Hey Mr. DJ
TTITLE5=Kiss All Over Your Body
TTITLE6=I Don't Care
TTITLE7=Why is it
TTITLE8=Tell Me
TTITLE9=Think Sometimes
TTITLE10=I Found a Keeper
TTITLE11=Unexpected (Reprise)
EXTD=
EXTT0=
EXTT1=
EXTT2=
EXTT3=
EXTT4=
EXTT5=
EXTT6=
EXTT7=
EXTT8=
EXTT9=
EXTT10=
EXTT11=
PLAYORDER=
